<svg enable-background="new 0 90 3049.99 612" height="612" viewBox="0 90 3049.99 612" width="3049.99" xmlns="http://www.w3.org/2000/svg"><circle cx="304.525" cy="396" fill="#fff" r="287.566"/><path d="m522.412 179.588c-59.725-59.725-131.863-89.588-216.412-89.588-84.5 0-156.613 29.863-216.338 89.588-59.774 59.725-89.662 131.863-89.662 216.412 0 84.5 29.888 156.613 89.662 216.338 59.725 59.774 131.838 89.662 216.338 89.662 84.549 0 156.687-29.888 216.412-89.662 59.725-59.725 89.588-131.838 89.588-216.338 0-84.549-29.863-156.687-89.588-216.412zm-34.729 397.284c-49.944 49.992-110.257 74.988-180.946 74.988s-131.027-24.996-181.019-74.988c-49.944-49.944-74.915-110.259-74.915-180.945s24.971-131.027 74.915-181.019c49.992-49.944 110.331-74.915 181.019-74.915s131.002 24.973 180.946 74.915c49.991 49.992 74.988 110.331 74.988 181.019s-24.996 131.001-74.988 180.945z"/><path d="m473.838 289.269.351-49.292h-126.013l-75.062 96.74-71.744-96.74h-54.638l-.124 312.526h51.861l-2.261-220.283 49.402 60.241.845 160.042h53.461l.111-161.221 48.518-57.44-.369 218.698h51.688l.147-161.774 74.177-.369v-51.172l-74.177-.147.074-49.845z"/><text font-family="'DINCondensed-Bold'" font-size="372" transform="translate(689.3202 527.3274)">MFCoin Paper Wallet</text></svg>