<svg height="612" viewBox="0 90 3049.99 612" width="3049.99" xmlns="http://www.w3.org/2000/svg"><circle cx="304.525" cy="396" fill="#fff" r="287.566"/><path d="M522.412 179.588C462.687 119.863 390.549 90 306 90c-84.5 0-156.613 29.863-216.338 89.588C29.888 239.313 0 311.451 0 396c0 84.5 29.888 156.613 89.662 216.338C149.387 672.112 221.5 702 306 702c84.549 0 156.687-29.888 216.412-89.662C582.137 552.613 612 480.5 612 396c0-84.549-29.863-156.687-89.588-216.412zm-34.729 397.284c-49.944 49.992-110.257 74.988-180.946 74.988s-131.027-24.996-181.019-74.988c-49.944-49.944-74.915-110.259-74.915-180.945S75.774 264.9 125.718 214.908c49.992-49.944 110.331-74.915 181.019-74.915s131.002 24.973 180.946 74.915c49.991 49.992 74.988 110.331 74.988 181.019s-24.996 131.001-74.988 180.945z"/><path d="M473.838 289.269l.351-49.292H348.176l-75.062 96.74-71.744-96.74h-54.638l-.124 312.526h51.861l-2.261-220.283 49.402 60.241.845 160.042h53.461l.111-161.221 48.518-57.44-.369 218.698h51.688l.147-161.774 74.177-.369v-51.172l-74.177-.147.074-49.845zM707.177 527.327V262.463h36.455l48.732 140.244h.744l48.36-140.244h36.827v264.864h-37.943V366.251h-.744l-37.572 113.832h-18.972l-37.2-113.832h-.744v161.076zM914.009 527.327V262.463h113.088v35.712h-75.145v80.352h65.473v35.712h-65.473v113.088zM1172.174 451.812v16.367c0 8.185-1.552 15.938-4.649 23.25-3.104 7.318-7.382 13.828-12.834 19.53-5.458 5.708-11.847 10.23-19.158 13.578-7.318 3.348-15.194 5.022-23.622 5.022-7.196 0-14.508-.994-21.948-2.977-7.439-1.981-14.136-5.452-20.088-10.416-5.952-4.958-10.852-11.346-14.694-19.158-3.848-7.812-5.766-17.792-5.766-29.945V321.239c0-8.678 1.488-16.74 4.464-24.18 2.977-7.44 7.19-13.886 12.648-19.344 5.452-5.452 11.962-9.73 19.529-12.834 7.562-3.098 15.933-4.65 25.11-4.65 17.856 0 32.364 5.83 43.524 17.484 5.452 5.708 9.729 12.462 12.834 20.274 3.098 7.812 4.649 16.31 4.649 25.482v14.88h-37.943v-12.648c0-7.44-2.11-13.886-6.324-19.344-4.22-5.452-9.922-8.184-17.112-8.184-9.428 0-15.688 2.917-18.786 8.742-3.104 5.83-4.649 13.206-4.649 22.134v135.408c0 7.69 1.674 14.136 5.021 19.344 3.349 5.208 9.358 7.812 18.042 7.812 2.477 0 5.145-.431 7.998-1.302 2.849-.866 5.517-2.29 7.998-4.278 2.232-1.982 4.092-4.708 5.58-8.184 1.488-3.471 2.232-7.812 2.232-13.021v-13.02h37.944zM1197.47 401.963c0-7.684.494-14.752 1.487-21.204.988-6.445 2.849-12.147 5.58-17.111 4.464-8.185 10.847-14.752 19.158-19.717 8.306-4.958 18.414-7.439 30.318-7.439 11.903 0 22.006 2.481 30.317 7.439 8.307 4.965 14.694 11.532 19.158 19.717 2.727 4.964 4.586 10.666 5.58 17.111.988 6.452 1.488 13.521 1.488 21.204v62.124c0 7.69-.5 14.758-1.488 21.204-.994 6.452-2.854 12.154-5.58 17.112-4.464 8.184-10.852 14.758-19.158 19.716-8.312 4.964-18.414 7.44-30.317 7.44-11.904 0-22.013-2.477-30.318-7.44-8.312-4.958-14.694-11.532-19.158-19.716-2.731-4.958-4.592-10.66-5.58-17.112-.993-6.446-1.487-13.514-1.487-21.204zm37.943 68.076c0 7.196 1.674 12.59 5.022 16.182 3.348 3.599 7.87 5.395 13.578 5.395 5.702 0 10.229-1.796 13.578-5.395 3.348-3.592 5.021-8.985 5.021-16.182v-74.028c0-7.189-1.674-12.584-5.021-16.182-3.349-3.592-7.876-5.394-13.578-5.394-5.708 0-10.23 1.802-13.578 5.394-3.349 3.598-5.022 8.992-5.022 16.182zM1338.456 300.407v-37.944h37.944v37.944zm0 226.92V338.724h37.944v188.604h-37.944zM1407.644 527.327V338.724h37.944v18.228h.743c3.965-5.952 8.742-10.846 14.322-14.694 5.58-3.842 12.706-5.766 21.391-5.766 4.708 0 9.422.808 14.136 2.418 4.708 1.616 8.928 4.278 12.647 7.998 3.721 3.72 6.696 8.498 8.929 14.322 2.231 5.83 3.348 12.962 3.348 21.39v144.708h-37.944V396.755c0-6.939-1.615-12.397-4.836-16.368-3.226-3.964-7.812-5.951-13.764-5.951-7.196 0-12.154 2.231-14.88 6.695-2.732 4.464-4.092 10.916-4.092 19.345v126.852h-37.944zM1623.77 527.327V262.463h56.916c10.416 0 19.588 1.366 27.527 4.092 7.935 2.732 15.124 7.568 21.576 14.508 6.446 6.946 10.91 15.066 13.392 24.366 2.477 9.3 3.721 21.89 3.721 37.758 0 11.903-.687 21.947-2.046 30.132-1.366 8.184-4.278 15.874-8.742 23.063-5.208 8.685-12.154 15.438-20.832 20.274-8.684 4.836-20.088 7.254-34.225 7.254h-19.344v103.416h-37.943zm37.943-229.152v90.024h18.229c7.684 0 13.636-1.116 17.855-3.348 4.214-2.232 7.312-5.33 9.3-9.301 1.982-3.72 3.162-8.306 3.534-13.764.372-5.452.559-11.532.559-18.228 0-6.196-.128-12.09-.372-17.67-.25-5.58-1.366-10.474-3.349-14.694-1.987-4.214-4.964-7.44-8.928-9.672-3.97-2.232-9.672-3.348-17.112-3.348h-19.716zM1840.274 527.327v-19.344h-.744c-4.964 6.945-9.985 12.275-15.065 15.996-5.086 3.72-12.218 5.58-21.391 5.58-4.464 0-8.991-.687-13.578-2.047-4.592-1.359-8.991-3.905-13.206-7.626-4.22-3.47-7.626-8.491-10.229-15.065-2.604-6.568-3.906-15.066-3.906-25.482 0-10.66.866-20.023 2.604-28.086 1.731-8.056 4.958-14.815 9.672-20.273 4.464-5.208 10.538-9.114 18.228-11.719 7.685-2.604 17.484-3.905 29.389-3.905h4.092s2.848.128 4.092.372c1.238.25 2.727.372 4.464.372 1.732 0 3.592.127 5.58.371v-19.716c0-6.445-1.366-11.775-4.092-15.996-2.732-4.214-7.69-6.323-14.88-6.323-4.964 0-9.486 1.615-13.578 4.836-4.092 3.226-6.76 7.939-7.998 14.136H1762.9c.988-16.862 6.696-30.504 17.112-40.92 4.958-4.958 10.91-8.864 17.855-11.718 6.94-2.849 14.752-4.278 23.437-4.278 7.934 0 15.374 1.244 22.319 3.72 6.94 2.482 13.021 6.202 18.229 11.16 4.958 4.964 8.928 11.16 11.904 18.6s4.464 16.124 4.464 26.04v131.316h-37.946zm0-81.096c-4.22-.744-7.689-1.116-10.416-1.116-8.184 0-15.193 1.924-21.018 5.766-5.83 3.849-8.742 10.853-8.742 21.019 0 7.195 1.732 13.02 5.208 17.483 3.47 4.464 8.306 6.696 14.508 6.696 6.446 0 11.468-2.104 15.066-6.324 3.592-4.214 5.394-10.166 5.394-17.855zM1906.117 603.587V338.724h37.944v17.111c4.708-5.452 9.544-10.044 14.508-13.764 4.958-3.72 12.148-5.58 21.576-5.58 15.624 0 26.656 5.952 33.107 17.855 2.232 4.221 3.843 9.429 4.836 15.624.988 6.202 1.488 14.509 1.488 24.925v71.796c0 13.892-.372 23.936-1.116 30.132-1.487 12.403-7.195 21.704-17.111 27.9-4.964 3.22-12.154 4.836-21.576 4.836-7.44 0-14.078-1.675-19.902-5.022-5.83-3.348-10.852-8.12-15.066-14.322h-.743v93.372zm75.516-203.483c0-7.685-1.487-13.887-4.464-18.601-2.976-4.708-7.689-7.067-14.136-7.067-5.708 0-10.294 2.174-13.764 6.51-3.477 4.342-5.208 9.985-5.208 16.926v73.284c0 5.952 1.796 10.852 5.394 14.694 3.592 3.848 8.12 5.766 13.578 5.766 7.19 0 12.09-2.232 14.694-6.696s3.905-9.672 3.905-15.624v-69.192zM2160.562 447.347h-75.145v25.669c0 5.951 1.674 10.543 5.022 13.764 3.348 3.226 7.87 4.836 13.578 4.836 7.189 0 11.962-2.104 14.321-6.324 2.354-4.214 3.778-8.428 4.278-12.647h37.944c0 16.617-5.086 30.01-15.252 40.176-4.964 5.208-10.916 9.3-17.856 12.275-6.945 2.977-14.758 4.465-23.436 4.465-11.904 0-22.013-2.477-30.318-7.44-8.312-4.958-14.694-11.532-19.158-19.716-2.731-4.958-4.592-10.66-5.58-17.112-.993-6.446-1.487-13.514-1.487-21.204v-62.124c0-7.684.494-14.752 1.487-21.204.988-6.445 2.849-12.147 5.58-17.111 4.464-8.185 10.847-14.752 19.158-19.717 8.306-4.958 18.414-7.439 30.318-7.439 8.678 0 16.554 1.488 23.622 4.464 7.067 2.976 13.078 7.068 18.042 12.276 9.916 11.16 14.88 25.174 14.88 42.036v52.077zm-75.144-29.76h37.2v-21.576c0-7.189-1.674-12.584-5.021-16.182-3.349-3.592-7.876-5.394-13.578-5.394-5.708 0-10.23 1.802-13.578 5.394-3.349 3.598-5.022 8.992-5.022 16.182v21.576zM2188.46 527.327V338.724h37.944v20.088c7.684-6.94 15.252-12.398 22.691-16.368 7.44-3.964 16.612-5.952 27.528-5.952v40.176a30.794 30.794 0 00-11.532-2.231c-3.97 0-8.248.686-12.834 2.046-4.592 1.365-8.742 3.661-12.462 6.882-3.97 3.226-7.196 7.439-9.672 12.647-2.482 5.208-3.72 11.66-3.72 19.345v111.972h-37.943zM2560.084 262.463l-39.432 264.864h-35.712l-29.016-171.864h-.744l-28.645 171.864h-35.712l-39.432-264.864h40.176l18.972 168.145h.744l29.76-168.145h29.017l30.876 172.236h.744l18.228-172.236zM2646.759 527.327v-19.344h-.744c-4.964 6.945-9.985 12.275-15.065 15.996-5.086 3.72-12.218 5.58-21.391 5.58-4.464 0-8.991-.687-13.578-2.047-4.592-1.359-8.991-3.905-13.206-7.626-4.22-3.47-7.626-8.491-10.229-15.065-2.604-6.568-3.906-15.066-3.906-25.482 0-10.66.866-20.023 2.604-28.086 1.731-8.056 4.958-14.815 9.672-20.273 4.464-5.208 10.538-9.114 18.228-11.719 7.685-2.604 17.484-3.905 29.389-3.905h4.092s2.848.128 4.092.372c1.238.25 2.727.372 4.464.372 1.732 0 3.592.127 5.58.371v-19.716c0-6.445-1.366-11.775-4.092-15.996-2.732-4.214-7.69-6.323-14.88-6.323-4.964 0-9.486 1.615-13.578 4.836-4.092 3.226-6.76 7.939-7.998 14.136h-36.828c.988-16.862 6.696-30.504 17.112-40.92 4.958-4.958 10.91-8.864 17.855-11.718 6.94-2.849 14.752-4.278 23.437-4.278 7.934 0 15.374 1.244 22.319 3.72 6.94 2.482 13.021 6.202 18.229 11.16 4.958 4.964 8.928 11.16 11.904 18.6s4.464 16.124 4.464 26.04v131.316h-37.946zm0-81.096c-4.22-.744-7.689-1.116-10.416-1.116-8.184 0-15.193 1.924-21.018 5.766-5.83 3.849-8.742 10.853-8.742 21.019 0 7.195 1.732 13.02 5.208 17.483 3.47 4.464 8.306 6.696 14.508 6.696 6.446 0 11.468-2.104 15.066-6.324 3.592-4.214 5.394-10.166 5.394-17.855zM2710.369 262.463h37.944v211.668c0 7.196 1.302 12.09 3.906 14.694s7.498 4.278 14.693 5.021v35.713c-8.684 0-16.495-.687-23.436-2.047-6.946-1.359-12.897-4.027-17.856-7.997-4.964-3.721-8.741-8.986-11.346-15.811-2.604-6.818-3.906-15.81-3.906-26.97V262.463zM2779.557 262.463h37.944v211.668c0 7.196 1.302 12.09 3.906 14.694s7.498 4.278 14.693 5.021v35.713c-8.684 0-16.495-.687-23.436-2.047-6.946-1.359-12.897-4.027-17.856-7.997-4.964-3.721-8.741-8.986-11.346-15.811-2.604-6.818-3.906-15.81-3.906-26.97V262.463zM2960.718 447.347h-75.145v25.669c0 5.951 1.674 10.543 5.022 13.764 3.348 3.226 7.87 4.836 13.578 4.836 7.189 0 11.962-2.104 14.321-6.324 2.354-4.214 3.778-8.428 4.278-12.647h37.944c0 16.617-5.086 30.01-15.252 40.176-4.964 5.208-10.916 9.3-17.856 12.275-6.945 2.977-14.758 4.465-23.436 4.465-11.904 0-22.013-2.477-30.318-7.44-8.312-4.958-14.694-11.532-19.158-19.716-2.731-4.958-4.592-10.66-5.58-17.112-.993-6.446-1.487-13.514-1.487-21.204v-62.124c0-7.684.494-14.752 1.487-21.204.988-6.445 2.849-12.147 5.58-17.111 4.464-8.185 10.847-14.752 19.158-19.717 8.306-4.958 18.414-7.439 30.318-7.439 8.678 0 16.554 1.488 23.622 4.464 7.067 2.976 13.078 7.068 18.042 12.276 9.916 11.16 14.88 25.174 14.88 42.036v52.077zm-75.145-29.76h37.2v-21.576c0-7.189-1.674-12.584-5.021-16.182-3.349-3.592-7.876-5.394-13.578-5.394-5.708 0-10.23 1.802-13.578 5.394-3.349 3.598-5.022 8.992-5.022 16.182v21.576zM2988.615 338.724v-57.289h37.944v57.289h23.436v29.76h-23.436v104.532c0 4.464.43 7.939 1.302 10.415.866 2.482 2.29 4.343 4.278 5.58 1.981 1.244 4.399 1.988 7.254 2.232 2.848.25 6.382.372 10.602.372v35.712h-15.624c-8.684 0-15.938-1.36-21.762-4.092-5.83-2.727-10.48-6.196-13.95-10.416-3.476-4.214-6.016-8.986-7.626-14.322-1.616-5.33-2.418-10.474-2.418-15.438V368.483h-18.972v-29.76h18.972z"/></svg>